<?xml version="1.0" encoding="utf-8"?>
<!-- Generator: Adobe Illustrator 17.1.0, SVG Export Plug-In . SVG Version: 6.00 Build 0)  -->
<!DOCTYPE svg PUBLIC "-//W3C//DTD SVG 1.1//EN" "http://www.w3.org/Graphics/SVG/1.1/DTD/svg11.dtd">
<svg version="1.1" xmlns="http://www.w3.org/2000/svg" xmlns:xlink="http://www.w3.org/1999/xlink" x="0px" y="0px"
	 viewBox="0 0 24 24" enable-background="new 0 0 24 24" xml:space="preserve">
<g id="Databases">
	<g id="Layer_5">
		<path fill="white" d="M8.3,2C4.8,2,2,2.9,2,4v1.6c0,1.1,2.8,2,6.3,2s6.3-0.9,6.3-2V4C14.7,2.9,11.8,2,8.3,2z"/>
		<path fill="white" d="M8.3,8.7C4.8,8.7,2,7.8,2,6.8v2.4c0,1.1,2.8,2,6.3,2c0.3,0,0.5,0,0.5,0c0.5-1.7,4.3-2.2,5.8-2.2V6.8
			C14.7,7.8,11.8,8.7,8.3,8.7z"/>
		<path fill="white" d="M8.3,12.3c-3.5,0-6.3-0.9-6.3-2v2.4c0,1.1,2.8,2,6.3,2c0.2,0,0.5,0,0.5,0l0-2.4C8.9,12.3,8.6,12.3,8.3,12.3z"/>
		<path fill="white" d="M8.3,15.8c-3.5,0.1-6.3-0.9-6.3-2v2.4c0,1.1,2.8,2,6.3,2h0.5v-2.4L8.3,15.8z"/>
	</g>
	<g id="Layer_6">
		<path fill="white" d="M15.7,9.3c-3.5,0-6.3,0.9-6.3,2v1.6c0,1.1,2.8,2,6.3,2s6.3-0.9,6.3-2v-1.6C22,10.2,19.2,9.3,15.7,9.3z"/>
		<path fill="white" d="M15.7,16.1c-3.5,0-6.3-0.9-6.3-2v2.4c0,1.1,2.8,2,6.3,2s6.3-0.9,6.3-2v-2.4C22,15.2,19.2,16.1,15.7,16.1z"/>
		<path fill="white" d="M15.7,19.6c-3.5,0-6.3-0.9-6.3-2V20c0,1.1,2.8,2,6.3,2s6.3-0.9,6.3-2v-2.4C22,18.7,19.2,19.6,15.7,19.6z"/>
	</g>
</g>
</svg>
